# xmcd
#
# Track frame offsets:
# 150
# 17963
# 23497
# 35314
# 46147
# 61256
# 66647
# 79155
# 92527
# 108008
# 119527
# 132629
# 145075
# 159312
# 169189
# 173824
# 184796
# 190491
# 203848
# 217667
#
# Disc length: 3024 seconds
#
#
# Revision: 1
# Processed by: cddbd v1.5.1PL2 Copyright (c) Steve Scherf et al.
# Submitted via: FreeRIP 2.945 
#
DISCID=100bce14
DTITLE=Various Artist - Country Hits CD 07
DYEAR=1900
DGENRE=Country
TTITLE0=Barbara Fairchild - And Robin Danced
TTITLE1=Bob Wills - Done Gone
TTITLE2=Carl Perkins - Roll Over Beethoven
TTITLE3=Barbara Mandrell -The Wayward Wind
TTITLE4=Conway Twitty - Play Guitar Play
TTITLE5=Danny Davis and Nashville Brass - Mountain Music
TTITLE6=Freddy Fender - Enter My Heart
TTITLE7=T G Sheppard - I Loved 'Em Everyone
TTITLE8=Tanya Tucker - You Are So Beautiful To Me
TTITLE9=Frankie Laine - Strange Lady In Town
TTITLE10=Don Williams - Where Are You
TTITLE11=Carl Perkins - We Did It In '54
TTITLE12=Eddie Raven - San Antonio Nights
TTITLE13=George Jones - Back In Baby's Arms Again
TTITLE14=Tammy Wynette - Your Good Girls Gonna Go Bad
TTITLE15=Tammy Wynette - D I V O R C E
TTITLE16=Tammy Wynette - Singing My Song
TTITLE17=Terri Gibbs - Yesterdays Long Ago
TTITLE18=Tex Ritter - The Cattle Call
TTITLE19=Freddy Fender - Running Back
EXTD=
EXTT0=
EXTT1=
EXTT2=
EXTT3=
EXTT4=
EXTT5=
EXTT6=
EXTT7=
EXTT8=
EXTT9=
EXTT10=
EXTT11=
EXTT12=
EXTT13=
EXTT14=
EXTT15=
EXTT16=
EXTT17=
EXTT18=
EXTT19=
PLAYORDER=
